<?xml version="1.0" encoding="utf-8"?>
<!-- Generator: Adobe Illustrator 19.0.0, SVG Export Plug-In . SVG Version: 6.00 Build 0)  -->
<svg version="1.1" id="_x38_55033fa-f203-4bd6-a750-76a03b91c714"
	 xmlns="http://www.w3.org/2000/svg" xmlns:xlink="http://www.w3.org/1999/xlink" x="0px" y="0px" viewBox="41 33.9 693.8 727.1"
	 style="enable-background:new 41 33.9 693.8 727.1;" xml:space="preserve">
<style type="text/css">
	.st0{opacity:0.21;fill:none;stroke:#2196F3;stroke-width:4;stroke-miterlimit:10;stroke-dasharray:12;enable-background:new    ;}
	.st1{opacity:0.5;fill:none;stroke:#2196F3;stroke-width:4;stroke-miterlimit:10;stroke-dasharray:12;enable-background:new    ;}
	.st2{opacity:0.21;}
	.st3{fill:none;stroke:#2196F3;stroke-width:4;stroke-miterlimit:10;}
	.st4{fill:none;stroke:#2196F3;stroke-width:4;stroke-miterlimit:10;stroke-dasharray:11.95,11.95;}
	.st5{opacity:0.5;}
	.st6{fill:none;stroke:#2196F3;stroke-width:4;stroke-miterlimit:10;stroke-dasharray:11.56,11.56;}
	.st7{fill:url(#SVGID_1_);}
	.st8{fill:#FFFFFF;}
	.st9{fill:#7B5EEA;}
	.st10{fill:#DBDBDB;}
	.st11{fill:url(#SVGID_2_);}
	.st12{opacity:0.2;}
</style>
<title>sync4</title>
<path class="st0" d="M131.1,394.5c0-159.3,101.6-294.8,243.5-345.4"/>
<path class="st1" d="M672.3,716.8c-53.6,29.1-113.7,44.3-174.7,44.2c-119.5,0-225.7-57.2-292.6-145.8"/>
<g class="st2">
	<path class="st3" d="M734.8,463.6c-0.6,1.9-1.1,3.8-1.8,5.7"/>
	<path class="st4" d="M729.2,480.7c-35,93.9-125.5,160.8-231.6,160.8c-136.4,0-247-110.6-247-247s110.6-247,247-247
		c54.1-0.1,106.8,17.7,149.8,50.6"/>
	<path class="st3" d="M652.1,201.8c1.6,1.3,3.1,2.5,4.6,3.8"/>
</g>
<g class="st5">
	<path class="st3" d="M476.6,256.1c2-0.3,4-0.5,6-0.8"/>
	<path class="st6" d="M494.1,254.5c1.2,0,2.3,0,3.5,0c77.3,0,140,62.7,140,140c0,23.9-6.1,47.4-17.7,68.2"/>
	<path class="st3" d="M616.9,467.7c-1,1.7-2.1,3.4-3.3,5"/>
</g>
<linearGradient id="SVGID_1_" gradientUnits="userSpaceOnUse" x1="332.629" y1="590.4576" x2="587.6829" y2="-11.8051" gradientTransform="matrix(0.9208 -0.3899 0.3899 0.9208 -237.3933 273.9295)">
	<stop  offset="0" style="stop-color:#808080;stop-opacity:0.25"/>
	<stop  offset="0.54" style="stop-color:#808080;stop-opacity:0.12"/>
	<stop  offset="1" style="stop-color:#808080;stop-opacity:0.1"/>
</linearGradient>
<path class="st7" d="M48.5,151.1L322.8,34.9c6.2-2.6,13.4,0.3,16.1,6.5l217.4,513.3c2.6,6.2-0.3,13.4-6.5,16.1L275.4,687
	c-6.2,2.6-13.4-0.3-16.1-6.5L42,167.1C39.3,160.9,42.3,153.7,48.5,151.1z"/>
<path class="st8" d="M56.8,156.1L320.6,44.4c6.9-2.9,14.9,0.3,17.9,7.2l210.1,496.3c2.9,6.9-0.3,14.9-7.2,17.9L277.6,677.5
	c-6.9,2.9-14.9-0.3-17.9-7.2L49.6,174C46.7,167,49.9,159,56.8,156.1z"/>
<path class="st9" d="M268,86.5c3.1,12.2-3.1,24.8-14.6,29.7l-99.8,42.3c-11.6,4.9-25,0.6-31.5-10.1l-52.8,22.4
	c-6.1,2.6-8.9,9.5-6.3,15.6l0,0l200.5,473.3c2.6,6.1,9.5,8.9,15.6,6.3l0,0l252.4-106.9c6.1-2.6,8.9-9.5,6.3-15.6l0,0L337.3,70.1
	c-2.6-6.1-9.5-8.9-15.6-6.3l0,0L268,86.5z"/>
<path class="st10" d="M167,132.2l60.6-25.7c1-0.4,2.2,0,2.6,1.1l0.1,0.3c0.4,1,0,2.2-1.1,2.6l-60.7,25.7c-1,0.4-2.2,0-2.6-1.1
	l-0.1-0.3C165.5,133.8,165.9,132.7,167,132.2z"/>
<circle class="st10" cx="243.8" cy="101.6" r="2.6"/>
<linearGradient id="SVGID_2_" gradientUnits="userSpaceOnUse" x1="583.2631" y1="448.7781" x2="583.2631" y2="343.6335" gradientTransform="matrix(0.8945 -0.4471 0.4471 0.8945 -393.847 264.8061)">
	<stop  offset="0" style="stop-color:#000000;stop-opacity:0.12"/>
	<stop  offset="0.55" style="stop-color:#000000;stop-opacity:9.000000e-002"/>
	<stop  offset="1" style="stop-color:#000000;stop-opacity:2.000000e-002"/>
</linearGradient>
<polygon class="st11" points="341.9,300 315.2,294.6 298.4,376.4 263.9,369.6 258.3,397.2 308.3,406.6 308.3,406.6 320.9,409.3 "/>
<polygon class="st8" points="340.3,300.4 316.3,295.8 300.5,378.7 265.2,372 260.6,396 307.9,405 307.9,405 319.9,407.1 "/>
<g class="st12">
	<path class="st8" d="M170.4,161.5l99.8-42.3c11.5-4.9,17.8-17.5,14.6-29.7l51-21.6l-0.8-1.8c-2.6-6.1-9.5-8.9-15.6-6.3l0,0
		l-53.6,22.7c3.1,12.2-3.1,24.8-14.6,29.7l-99.8,42.3c-2.7,1.1-5.5,1.8-8.4,1.9C150.3,163.4,161.1,165.4,170.4,161.5z"/>
	<path class="st8" d="M79.7,189.3c-2.6-6.1,0.3-13,6.3-15.6l0,0l45.5-19.3c-4.9-2.1-9-5.6-11.7-10.1l-52.9,22.4
		c-6.1,2.6-8.9,9.5-6.3,15.6l0,0l200.5,473.3c2.6,6.1,9.5,8.9,15.6,6.3l0,0l2.6-1.1L79.7,189.3z"/>
</g>
</svg>
